<svg width="112" height="26" viewBox="0 0 112 26" fill="none" xmlns="http://www.w3.org/2000/svg">
<g opacity="0.8">
<path d="M5.552 20.308C2.416 20.308 0.232 18.516 0.00800006 16.08H3.648C3.844 16.976 4.656 17.34 5.552 17.34C6.392 17.34 6.98 16.976 6.98 16.36C6.98 14.456 0.344 15.716 0.344 10.536C0.344 8.24 2.276 6.56 5.216 6.532C8.184 6.504 10.172 8.072 10.368 10.62H6.784C6.644 9.976 6.084 9.5 5.216 9.5C4.376 9.5 3.872 9.976 3.872 10.536C3.872 12.328 10.62 11.32 10.62 16.36C10.62 18.796 8.212 20.308 5.552 20.308ZM12.1114 20V6.84H15.9754V20H12.1114ZM14.0434 4.852C12.7274 4.852 11.6354 3.844 11.6354 2.556C11.6354 1.24 12.7274 0.204 14.0434 0.204C15.3594 0.204 16.4514 1.24 16.4514 2.556C16.4514 3.844 15.3594 4.852 14.0434 4.852ZM18.026 12.636C18.026 8.856 20.014 6.532 23.906 6.532C26.51 6.532 27.854 8.044 28.386 8.94H28.442C28.974 8.044 30.318 6.532 32.922 6.532C36.814 6.532 38.802 8.856 38.802 12.636V20H34.938V12.916C34.938 11.068 34.21 9.892 32.642 9.892C31.074 9.892 30.346 11.068 30.346 12.916V20H26.482V12.916C26.482 11.068 25.754 9.892 24.186 9.892C22.618 9.892 21.89 11.068 21.89 12.916V20H18.026V12.636ZM49.2937 20.308C47.3617 20.308 45.9617 19.44 45.1777 17.984V25.544H41.3137V6.84H44.7297L45.0937 9.024C45.8777 7.484 47.3057 6.532 49.2937 6.532C52.2337 6.532 55.2577 8.828 55.2577 13.42C55.2577 18.012 52.2337 20.308 49.2937 20.308ZM48.2017 16.948C50.0777 16.948 51.4497 15.604 51.4497 13.42C51.4497 11.32 50.1057 9.892 48.2017 9.892C46.8017 9.892 45.1497 11.04 45.1497 13.42C45.1497 15.968 46.7457 16.948 48.2017 16.948ZM57.156 20V0.903999H61.02V20H57.156ZM69.8183 20.308C65.6463 20.308 62.9303 17.368 62.9303 13.42C62.9303 9.5 65.7303 6.532 69.7063 6.532C73.6823 6.532 76.4263 9.5 76.4263 13.42L76.3983 14.68H66.5143C66.9343 16.36 68.1103 17.2 69.7343 17.2C71.2183 17.2 72.0023 16.836 72.5343 16.024H76.0343C75.1943 19.076 72.4223 20.308 69.8183 20.308ZM66.4863 12.104H72.8983C72.6463 10.676 71.3023 9.668 69.7063 9.668C68.0263 9.668 66.8503 10.648 66.4863 12.104Z" fill="#F8F8F8" fill-opacity="0.7"/>
<path d="M78.3354 20V0.903999H82.1994V20H78.3354ZM84.8097 20V6.84H88.6737V20H84.8097ZM86.7417 4.852C85.4257 4.852 84.3337 3.844 84.3337 2.556C84.3337 1.24 85.4257 0.204 86.7417 0.204C88.0577 0.204 89.1497 1.24 89.1497 2.556C89.1497 3.844 88.0577 4.852 86.7417 4.852ZM95.8203 20.308C92.6843 20.308 90.5003 18.516 90.2763 16.08H93.9163C94.1123 16.976 94.9243 17.34 95.8203 17.34C96.6603 17.34 97.2483 16.976 97.2483 16.36C97.2483 14.456 90.6123 15.716 90.6123 10.536C90.6123 8.24 92.5443 6.56 95.4843 6.532C98.4523 6.504 100.44 8.072 100.636 10.62H97.0523C96.9123 9.976 96.3523 9.5 95.4843 9.5C94.6443 9.5 94.1403 9.976 94.1403 10.536C94.1403 12.328 100.888 11.32 100.888 16.36C100.888 18.796 98.4803 20.308 95.8203 20.308ZM108.652 20.224C105.572 20.224 103.528 18.376 103.528 14.82V9.864H101.12V6.84H103.528V2.36H107.392V6.84H111.256V9.864H107.392V14.288C107.392 15.94 107.952 16.808 109.716 16.808L110.864 16.78V19.888C110.08 20.112 109.436 20.224 108.652 20.224Z" fill="#F8F8F8" fill-opacity="0.95"/>
</g>
</svg>
